<svg aria-hidden="true" style="position: absolute; width: 0; height: 0; overflow: hidden;" version="1.1" xmlns="http://www.w3.org/2000/svg" xmlns:xlink="http://www.w3.org/1999/xlink">
<defs>
<symbol id="icon-Angle-Left" viewBox="0 0 13 32">
<path d="M11.189 9.714c0 0.143-0.080 0.304-0.183 0.41l-7.029 7.018 7.018 7.017c0.103 0.103 0.171 0.263 0.171 0.4 0 0.143-0.080 0.297-0.183 0.4l-0.903 0.891c-0.114 0.103-0.274 0.171-0.41 0.171-0.143 0-0.304-0.080-0.41-0.183l-8.323-8.331c-0.114-0.114-0.183-0.274-0.183-0.41 0-0.143 0.069-0.304 0.171-0.41l8.32-8.331c0.103-0.114 0.263-0.183 0.41-0.183 0.143 0 0.304 0.069 0.41 0.171l0.891 0.891c0.103 0.103 0.171 0.24 0.171 0.41z"></path>
</symbol>
<symbol id="icon-Angle-Right" viewBox="0 0 10 32">
<path d="M10.617 17.143c0 0.143-0.080 0.304-0.183 0.41l-8.331 8.32c-0.114 0.103-0.274 0.171-0.41 0.171-0.143 0-0.304-0.080-0.41-0.183l-0.903-0.903c-0.114-0.114-0.183-0.251-0.183-0.411 0-0.143 0.072-0.309 0.171-0.411l7.018-7.018-7.021-7.018c-0.114-0.114-0.183-0.274-0.183-0.41 0-0.143 0.072-0.304 0.171-0.41l0.891-0.903c0.103-0.114 0.263-0.183 0.41-0.183 0.143 0 0.304 0.069 0.41 0.171l8.322 8.321c0.103 0.103 0.171 0.263 0.171 0.41z"></path>
</symbol>
</defs>
</svg>
