<svg aria-hidden="true" style="position: absolute; width: 0; height: 0; overflow: hidden;" version="1.1" xmlns="http://www.w3.org/2000/svg" xmlns:xlink="http://www.w3.org/1999/xlink">
<defs>
<symbol id="icon-experiance" viewBox="0 0 34 32">
<path fill="#fff" style="fill: var(--color1, #fff)" d="M29.867 32h-25.6c-2.356 0-4.267-1.91-4.267-4.267v0-19.2c0-2.356 1.91-4.267 4.267-4.267v0h6.4v-2.133c0-1.178 0.955-2.133 2.133-2.133v0h8.533c1.178 0 2.133 0.955 2.133 2.133v0 2.133h6.4c2.356 0 4.267 1.91 4.267 4.267v0 19.2c0 2.356-1.91 4.267-4.267 4.267v0zM21.333 4.267v-1.067c0-0.589-0.478-1.067-1.067-1.067v0h-6.4c-0.589 0-1.067 0.478-1.067 1.067v0 1.067h8.533zM32 8.533c0-1.178-0.955-2.133-2.133-2.133v0h-25.6c-1.178 0-2.133 0.955-2.133 2.133v0 5.333h29.867v-5.333zM14.933 17.067c0 1.178 0.955 2.133 2.133 2.133s2.133-0.955 2.133-2.133v0c-0.003-0.394-0.113-0.762-0.304-1.076l0.005 0.009h-3.669c-0.185 0.305-0.296 0.672-0.299 1.066v0.001zM32 16h-10.816c0.089 0.318 0.143 0.685 0.149 1.063l0 0.004c0 2.356-1.91 4.267-4.267 4.267s-4.267-1.91-4.267-4.267v0c0.006-0.382 0.060-0.748 0.157-1.097l-0.007 0.031h-10.816v11.733c0.004 1.177 0.957 2.13 2.133 2.133h25.6c1.177-0.004 2.13-0.957 2.133-2.133v-11.734z"></path>
</symbol>
<symbol id="icon-lower-cost" viewBox="0 0 32 32">
<path fill="#fff" style="fill: var(--color1, #fff)" d="M30.589 17.616l-13.212 13.182c-0.754 0.747-1.792 1.209-2.938 1.209s-2.184-0.462-2.938-1.209l0 0-10.28-10.25c-0.751-0.75-1.216-1.787-1.216-2.933s0.465-2.183 1.216-2.933l0-0 13.212-13.172c1.011-1.061 1.201-1.521 2.262-1.521h13.433c1.056 0 1.912 0.856 1.912 1.912v0 13.393c0 1.051-0.601 1.471-1.451 2.322zM2.683 19.078l10.28 10.25c0.377 0.376 0.897 0.608 1.471 0.608s1.094-0.232 1.471-0.608l-0 0 1.451-1.441-13.182-13.212-1.491 1.481c-0.376 0.373-0.608 0.89-0.608 1.461s0.232 1.088 0.608 1.461l0 0zM30.128 2.863c0-0.531-0.43-0.961-0.961-0.961v0h-11.511c-0.705 0.172-1.305 0.55-1.748 1.067l-0.004 0.004-10.27 10.24 13.202 13.192 10.28-10.25c0.516-0.466 0.878-1.094 1.008-1.802l0.003-0.020v-11.471zM19.578 12.492c-0.748-0.75-1.21-1.785-1.21-2.928 0-2.291 1.857-4.148 4.148-4.148s4.148 1.857 4.148 4.148c0 1.143-0.462 2.178-1.21 2.928l0-0c-0.749 0.757-1.789 1.226-2.938 1.226s-2.188-0.469-2.937-1.226l-0-0zM23.982 8.098c-0.376-0.377-0.896-0.611-1.471-0.611-1.147 0-2.077 0.93-2.077 2.077s0.93 2.077 2.077 2.077c0.575 0 1.095-0.233 1.471-0.611l0-0c0.373-0.376 0.603-0.894 0.603-1.466s-0.23-1.090-0.603-1.467l0 0z"></path>
</symbol>
<symbol id="icon-professional" viewBox="0 0 32 32">
<path fill="#fff" style="fill: var(--color1, #fff)" d="M30 2v19l-0-0.009c0.003 0.066 0.005 0.131 0.005 0.198 0 2.108-1.708 3.816-3.816 3.816-0.066 0-0.132-0.002-0.189-0.005h-6l4 7-3.010-0.010-3.99-6.99h-2l-3.99 6.99-3.010 0.010 4-7-5.991-0c-0.066 0.003-0.131 0.005-0.198 0.005-2.108 0-3.816-1.708-3.816-3.816 0-0.066 0.002-0.132 0.005-0.189v-19h-2v-2h32v2h-2zM28.010 1.99h-24.030c0 1.27 0.020 19.010 0.020 19.010-0.003 0.041-0.005 0.088-0.005 0.136 0 1.032 0.837 1.869 1.869 1.869 0.048 0 0.095-0.002 0.142-0.005l-0.006 0h20c0.041 0.003 0.088 0.005 0.136 0.005 1.032 0 1.869-0.837 1.869-1.869 0-0.048-0.002-0.095-0.005-0.142l0 0.006s0.010-16.99 0.010-19.010zM22 20v0c0.552 0 1-0.448 1-1v-9c0-0.552-0.448-1-1-1s-1 0.448-1 1v9c0 0.552 0.448 1 1 1zM16 20v0c0.552 0 1-0.448 1-1v-12c0-0.552-0.448-1-1-1s-1 0.448-1 1v12c0 0.552 0.448 1 1 1zM10 20v0c0.552 0 1-0.448 1-1v-4c0-0.552-0.448-1-1-1s-1 0.448-1 1v4c0 0.552 0.448 1 1 1z"></path>
</symbol>
<symbol id="icon-quality" viewBox="0 0 32 32">
<path fill="#fff" style="fill: var(--color1, #fff)" d="M32.010 25.95s-3.16 0.63-6.37 1.29c-2.14 2.38-4.27 4.76-4.27 4.76l-4.59-7.83c-0.26 0.020-0.52 0.040-0.78 0.040s-0.52-0.020-0.78-0.040l-4.59 7.83s-2.13-2.38-4.27-4.76c-3.21-0.66-6.37-1.29-6.37-1.29l4.99-8.52c-0.796-1.549-1.264-3.379-1.27-5.318v-0.002c0.088-6.72 5.557-12.134 12.29-12.134s12.202 5.414 12.29 12.126l0 0.008c-0.006 1.941-0.474 3.771-1.301 5.387l0.031-0.067zM21.6 28.37s1.54-1.46 2.98-2.86c2.050-0.58 4.12-1.18 4.12-1.18l-2.9-4.94c-1.685 2.179-4.046 3.763-6.765 4.442l-0.085 0.018zM3.3 24.33s2.070 0.6 4.12 1.18c1.44 1.4 2.97 2.86 2.97 2.86l2.66-4.52c-2.804-0.697-5.165-2.281-6.829-4.432l-0.021-0.028zM16 1.99c-0.006 0-0.013-0-0.020-0-5.528 0-10.010 4.482-10.010 10.010s4.482 10.010 10.010 10.010c5.528 0 10.010-4.482 10.010-10.010v0c0-0.003 0-0.007 0-0.010 0-5.519-4.471-9.994-9.989-10h-0.001zM16 19c-3.866 0-7-3.134-7-7s3.134-7 7-7c3.866 0 7 3.134 7 7v0c0 0.001 0 0.003 0 0.005 0 3.863-3.132 6.995-6.995 6.995-0.002 0-0.003 0-0.005 0h0zM16 7c-2.761 0-5 2.239-5 5s2.239 5 5 5c2.761 0 5-2.239 5-5v0c0-2.761-2.239-5-5-5v0z"></path>
</symbol>
<symbol id="icon-speed" viewBox="0 0 32 32">
<path fill="#fff" style="fill: var(--color1, #fff)" d="M29.867 18.133c0 0.004 0 0.008 0 0.013 0 7.658-6.208 13.867-13.867 13.867s-13.867-6.208-13.867-13.867c0-7.287 5.62-13.261 12.762-13.823l0.048-0.003c0-0.021-0.011-0.032-0.011-0.053v-2.133h-4.267c-0.589 0-1.067-0.478-1.067-1.067s0.478-1.067 1.067-1.067v0h10.667c0.589 0 1.067 0.478 1.067 1.067s-0.478 1.067-1.067 1.067v0h-4.267v2.133c0 0.021-0.011 0.032-0.011 0.053 7.189 0.559 12.811 6.53 12.811 13.813v0zM16 6.4c-6.48 0-11.733 5.253-11.733 11.733s5.253 11.733 11.733 11.733c6.48 0 11.733-5.253 11.733-11.733v0c0-0.002 0-0.004 0-0.006 0-6.477-5.25-11.727-11.727-11.727-0.002 0-0.005 0-0.007 0h0zM16 21.333c-1.757-0.014-3.175-1.441-3.175-3.2 0-1.376 0.868-2.549 2.086-3.001l0.022-0.007v-5.525c0-0.589 0.478-1.067 1.067-1.067s1.067 0.478 1.067 1.067v0 5.525c1.24 0.459 2.108 1.632 2.108 3.008 0 1.759-1.419 3.186-3.174 3.2h-0.001z"></path>
</symbol>
<symbol id="icon-Angle-Left" viewBox="0 0 13 32">
<path d="M11.189 9.714c0 0.143-0.080 0.304-0.183 0.41l-7.029 7.018 7.018 7.017c0.103 0.103 0.171 0.263 0.171 0.4 0 0.143-0.080 0.297-0.183 0.4l-0.903 0.891c-0.114 0.103-0.274 0.171-0.41 0.171-0.143 0-0.304-0.080-0.41-0.183l-8.323-8.331c-0.114-0.114-0.183-0.274-0.183-0.41 0-0.143 0.069-0.304 0.171-0.41l8.32-8.331c0.103-0.114 0.263-0.183 0.41-0.183 0.143 0 0.304 0.069 0.41 0.171l0.891 0.891c0.103 0.103 0.171 0.24 0.171 0.41z"></path>
</symbol>
<symbol id="icon-Angle-Right" viewBox="0 0 10 32">
<path d="M10.617 17.143c0 0.143-0.080 0.304-0.183 0.41l-8.331 8.32c-0.114 0.103-0.274 0.171-0.41 0.171-0.143 0-0.304-0.080-0.41-0.183l-0.903-0.903c-0.114-0.114-0.183-0.251-0.183-0.411 0-0.143 0.072-0.309 0.171-0.411l7.018-7.018-7.021-7.018c-0.114-0.114-0.183-0.274-0.183-0.41 0-0.143 0.072-0.304 0.171-0.41l0.891-0.903c0.103-0.114 0.263-0.183 0.41-0.183 0.143 0 0.304 0.069 0.41 0.171l8.322 8.321c0.103 0.103 0.171 0.263 0.171 0.41z"></path>
</symbol>
</defs>
</svg>
