<svg aria-hidden="true" style="position: absolute; width: 0; height: 0; overflow: hidden;" version="1.1" xmlns="http://www.w3.org/2000/svg" xmlns:xlink="http://www.w3.org/1999/xlink">
<defs>
<symbol id="icon-Linkedin" viewBox="0 0 27 32">
<path fill="#fff" style="fill: var(--color1, #fff)" d="M6.232 11.161v17.696h-5.901v-17.696h5.893zM6.598 5.696c0.011 1.696-1.267 3.051-3.326 3.051v0h-0.046c-1.982 0-3.25-1.36-3.25-3.063 0-1.733 1.314-3.063 3.314-3.063 2.018 0 3.267 1.314 3.286 3.051zM27.419 18.714v10.143h-5.886v-9.474c0-2.377-0.857-4-2.983-4-1.634 0-2.59 1.086-3.018 2.143-0.143 0.389-0.206 0.903-0.206 1.44v9.874h-5.875c0.069-16.046 0-17.696 0-17.696h5.875v2.57h-0.046c0.766-1.223 2.161-2.982 5.337-2.982 3.874 0 6.766 2.526 6.766 7.954z"></path>
</symbol>
<symbol id="icon-Twitter" viewBox="0 0 30 32">
<path fill="#fff" style="fill: var(--color1, #fff)" d="M28.928 7.286c-0.789 1.143-1.771 2.161-2.903 2.982 0.011 0.24 0.011 0.491 0.011 0.743 0 7.623-5.806 16.4-16.411 16.4-3.267 0-6.304-0.949-8.857-2.594 0.457 0.046 0.903 0.069 1.383 0.069 2.686 0 5.177-0.914 7.161-2.469-2.537-0.057-4.661-1.714-5.393-4 0.354 0.046 0.714 0.080 1.086 0.080 0.514 0 1.029-0.080 1.509-0.206-2.651-0.537-4.625-2.857-4.625-5.669v-0.080c0.766 0.429 1.657 0.696 2.607 0.733-1.553-1.040-2.571-2.811-2.571-4.803 0-1.074 0.286-2.057 0.777-2.914 2.839 3.497 7.107 5.783 11.886 6.034-0.091-0.429-0.143-0.875-0.143-1.326 0-3.189 2.571-5.768 5.76-5.768 1.657 0 3.154 0.696 4.206 1.817 1.303-0.251 2.549-0.733 3.657-1.394-0.429 1.337-1.349 2.457-2.537 3.177 1.154-0.126 2.286-0.447 3.314-0.903z"></path>
</symbol>
<symbol id="icon-Facebook" viewBox="0 0 18 32">
<path fill="#fff" style="fill: var(--color1, #fff)" d="M17.125 0.206v4.709h-2.811c-2.206 0-2.617 1.051-2.617 2.571v3.371h5.223l-0.696 5.28h-4.537v13.543h-5.48v-13.554h-4.549v-5.286h4.549v-3.903c0-4.514 2.766-6.983 6.8-6.983 1.92 0 3.59 0.143 4.069 0.206z"></path>
</symbol>
<symbol id="icon-Instagram" viewBox="0 0 27 32">
<path fill="#fff" style="fill: var(--color1, #fff)" d="M18.286 16c0-2.526-2.057-4.571-4.571-4.571-2.526 0-4.571 2.046-4.571 4.571 0 2.514 2.046 4.571 4.571 4.571 2.514 0 4.571-2.057 4.571-4.571zM20.743 16c0 3.886-3.143 7.029-7.040 7.029s-7.035-3.143-7.035-7.040 3.143-7.035 7.035-7.035c3.886 0 7.029 3.143 7.029 7.035zM22.663 8.674c0 0.903-0.743 1.634-1.646 1.634-0.914 0-1.646-0.733-1.646-1.646 0-0.914 0.731-1.646 1.634-1.646s1.634 0.733 1.634 1.634zM13.691 4.743c-2 0-6.286-0.171-8.089 0.553-0.629 0.24-1.097 0.553-1.571 1.029-0.491 0.48-0.789 0.937-1.040 1.571-0.714 1.794-0.553 6.080-0.553 8.080s-0.171 6.286 0.553 8.080c0.24 0.617 0.549 1.086 1.029 1.571 0.48 0.48 0.937 0.777 1.571 1.029 1.794 0.714 6.089 0.549 8.089 0.549s6.286 0.16 8.080-0.56c0.617-0.251 1.086-0.56 1.571-1.040 0.48-0.491 0.777-0.949 1.029-1.571 0.714-1.806 0.549-6.091 0.549-8.091s0.16-6.286-0.56-8.089c-0.251-0.629-0.56-1.097-1.040-1.571-0.491-0.491-0.949-0.789-1.571-1.040-1.806-0.714-6.091-0.553-8.091-0.553zM27.406 15.989c0 1.886 0.011 3.76-0.091 5.657-0.114 2.194-0.617 4.143-2.217 5.749-1.611 1.6-3.554 2.103-5.76 2.206-1.897 0.103-3.771 0.080-5.669 0.080s-3.771 0.011-5.669-0.091c-2.206-0.114-4.149-0.617-5.76-2.217-1.611-1.611-2.114-3.554-2.217-5.76-0.114-1.897-0.091-3.771-0.091-5.669s-0.023-3.771 0.080-5.669c0.103-2.206 0.606-4.149 2.206-5.76s3.543-2.114 5.749-2.217c1.886-0.114 3.76-0.091 5.657-0.091 1.886 0 3.76-0.023 5.657 0.080 2.194 0.103 4.143 0.606 5.749 2.206 1.6 1.6 2.103 3.553 2.206 5.749 0.103 1.886 0.080 3.76 0.080 5.657z"></path>
</symbol>
<symbol id="icon-commercial" viewBox="0 0 26 32">
<path fill="#629fd1" style="fill: var(--color2, #629fd1)" d="M11.957 0h1.851c0.931 0.449 1.966 0.686 2.82 1.289 1.101 0.772 1.992 1.86 2.469 3.123 0.475 1.087 0.449 2.281 0.411 3.443 1.585 0.071 3.176-0.046 4.757 0.057 0.735-0.007 1.299 0.668 1.256 1.381 0.002 6.937-0.005 13.874 0.003 20.809-0.005 0.521-0.112 1.18-0.649 1.416-0.747 0.282-1.557 0.186-2.338 0.198-6.481-0.002-12.96-0.002-19.441 0.002-0.714-0.015-1.459 0.084-2.144-0.181-0.492-0.218-0.714-0.781-0.699-1.292-0.007-6.699 0.007-13.4-0.007-20.1 0.009-0.616-0.089-1.33 0.377-1.82 0.337-0.425 0.934-0.416 1.426-0.452 1.363 0 2.723 0.007 4.086 0.003 0.065-0.707 0.105-1.416 0.163-2.123 0.317-1.874 1.428-3.632 3.069-4.614 0.802-0.509 1.746-0.707 2.588-1.137zM10.916 2.144c-1.378 0.59-2.397 1.824-2.892 3.219-0.119 0.831-0.065 1.672-0.076 2.508 3.298 0.005 6.596 0.005 9.894 0-0.005-0.726 0.033-1.454-0.029-2.176-0.482-1.913-2.108-3.523-4.064-3.886-0.953-0.060-1.953-0.103-2.834 0.335zM7.852 10.662c-0.059 0.64-0.010 1.285-0.026 1.927 0.776 0.526 1.586 1.209 1.71 2.199 0.155 1.175-0.731 2.3-1.819 2.649-0.628 0.015-1.349 0.169-1.889-0.243-0.862-0.513-1.409-1.567-1.242-2.569 0.186-0.834 0.805-1.5 1.555-1.879 0.031-0.735 0.026-1.469 0.005-2.204-1.103 0.015-2.204-0.015-3.305 0.022-0.022 6.135 0.021 12.27-0.021 18.405 0.576 0.253 1.213 0.145 1.824 0.162 5.851 0.002 11.702-0.003 17.554 0.003 0.274 0.017 0.53-0.083 0.786-0.165-0.038-5.989-0.005-11.979-0.015-17.968 0.041-0.253-0.050-0.437-0.274-0.554-0.568-0.055-1.139-0.010-1.707-0.024-0.501 0.010-1.027-0.076-1.486 0.174 0.017 0.671 0.012 1.342 0.002 2.013 0.607 0.411 1.266 0.857 1.509 1.59 0.566 1.101-0.117 2.489-1.154 3.028-0.573 0.361-1.285 0.229-1.923 0.206-0.743-0.292-1.33-0.919-1.6-1.667-0.244-0.91 0.012-1.985 0.803-2.553 0.222-0.217 0.576-0.327 0.692-0.628 0.045-0.669-0.009-1.34 0.024-2.009-0.203-0.105-0.416-0.157-0.642-0.155-2.928 0.009-5.856 0.003-8.785 0.002-0.236-0.029-0.428 0.050-0.576 0.237zM6.259 14.691c0.010 0.289 0.019 0.578 0.029 0.867 0.138 0.086 0.277 0.169 0.42 0.251 0.516 0.366 1.271-0.255 1.148-0.829 0.041-0.363-0.317-0.575-0.559-0.774-0.44-0.139-0.745 0.225-1.037 0.485zM17.949 14.563c0.052 0.399-0.163 0.945 0.272 1.185 0.375 0.007 0.871 0.17 1.141-0.179 0.354-0.348 0.241-1.074-0.263-1.225-0.401-0.091-0.803 0.010-1.149 0.219z"></path>
</symbol>
<symbol id="icon-content" viewBox="0 0 36 32">
<path fill="#629fd1" style="fill: var(--color2, #629fd1)" d="M0.887 0h34.639c0.333 0.354 0.651 0.723 0.954 1.105v29.822c-0.279 0.371-0.572 0.734-0.892 1.073h-34.594c-0.299-0.452-0.693-0.911-0.651-1.491 0.002-9.602 0.004-19.202 0-28.804-0.021-0.617 0.301-1.161 0.544-1.705zM3.332 2.88c-0.331 1.001-0.183 2.059-0.209 3.093 0.017 0.828-0.094 1.677 0.16 2.481 10.039-0.028 20.079 0.017 30.118-0.023-0.006-1.758 0.032-3.518-0.011-5.276-0.079-0.064-0.235-0.188-0.311-0.252-9.916-0.036-19.831 0.013-29.747-0.023zM3.27 10.347c-0.015 6.266 0 12.533-0.009 18.799 10.048-0.011 20.098 0.017 30.146-0.013-0.015-6.259 0-12.516-0.009-18.773-10.044-0.026-20.085 0-30.129-0.013z"></path>
<path fill="#629fd1" style="fill: var(--color2, #629fd1)" d="M31.189 4.316c1.252-0.329 2.061 1.406 1.267 2.293-0.425 0.702-1.566 0.751-2.091 0.149-0.855-0.713-0.412-2.539 0.823-2.443z"></path>
<path fill="#629fd1" style="fill: var(--color2, #629fd1)" d="M24.107 4.341c0.653-0.128 1.389-0.011 1.749 0.612 0.149 0.597 0.237 1.378-0.299 1.818-0.745 0.849-2.261 0.254-2.411-0.815-0.169-0.687 0.361-1.363 0.96-1.615z"></path>
<path fill="#629fd1" style="fill: var(--color2, #629fd1)" d="M26.724 4.83c0.523-0.567 1.35-0.646 2.050-0.397 0.375 0.343 0.661 0.802 0.574 1.331 0.16 1.109-1.282 1.794-2.135 1.195-0.779-0.42-0.422-1.417-0.489-2.129z"></path>
<path fill="#629fd1" style="fill: var(--color2, #629fd1)" d="M8.745 13.34c0.262-0.115 0.544-0.188 0.832-0.173 2.434 0.006 4.868 0.004 7.3 0 0.672-0.026 1.481 0.367 1.545 1.103-0.122 0.747-0.909 0.945-1.557 0.949-2.355 0.004-4.713-0.006-7.068 0.004-0.553-0.013-1.261-0.058-1.553-0.606-0.457-0.439 0.083-1.052 0.501-1.278z"></path>
<path fill="#629fd1" style="fill: var(--color2, #629fd1)" d="M19.341 14.505c0.073-0.499 0.324-1.263 0.962-1.186 2.34-0.021 4.683 0 7.023-0.011 0.444-0.055 0.798 0.247 1.167 0.439 0.006 2.793 0.028 5.583-0.011 8.375-0.365 0.177-0.727 0.431-1.156 0.384-2.477-0.009-4.956 0.002-7.435-0.009-0.258-0.418-0.627-0.832-0.559-1.363 0.011-2.208-0.011-4.42 0.009-6.63zM21.205 15.228c-0.019 1.798 0 3.597-0.015 5.395 1.811 0.030 3.622 0.009 5.434 0.015-0.004-1.807 0.013-3.616-0.015-5.423-1.801 0.011-3.603-0.009-5.404 0.013z"></path>
<path fill="#629fd1" style="fill: var(--color2, #629fd1)" d="M8.495 16.994c2.865-0.023 5.73 0.002 8.595-0.015 0.279 0.026 0.593-0.045 0.851 0.094 0.213 0.252 0.367 0.546 0.54 0.828-0.279 0.354-0.448 1.020-1.007 0.951-2.94 0.009-5.879 0.002-8.817 0-0.16-0.256-0.354-0.497-0.463-0.783-0.030-0.382 0.194-0.721 0.301-1.075z"></path>
<path fill="#629fd1" style="fill: var(--color2, #629fd1)" d="M8.474 20.787c2.865-0.068 5.732-0.006 8.597-0.034 0.373 0.032 0.804-0.060 1.133 0.162 0.060 0.373 0.073 0.751 0.098 1.126-0.318 0.209-0.627 0.518-1.041 0.465-2.863-0.017-5.728 0.021-8.591-0.021-0.211-0.307-0.427-0.608-0.644-0.911 0.156-0.26 0.303-0.523 0.448-0.787z"></path>
<path fill="#629fd1" style="fill: var(--color2, #629fd1)" d="M8.384 24.437c6.381-0.058 12.764-0.011 19.145-0.026 0.375-0.045 0.683 0.177 0.973 0.378-0.006 0.322-0.011 0.644-0.015 0.964-0.365 0.186-0.734 0.422-1.163 0.38-6.225-0.013-12.452 0.006-18.677-0.011-0.158-0.154-0.316-0.307-0.471-0.461 0.032-0.414 0.096-0.826 0.209-1.225z"></path>
</symbol>
<symbol id="icon-design" viewBox="0 0 38 32">
<path fill="#629fd1" style="fill: var(--color2, #629fd1)" d="M7.599 6.953c0.405-2.165 0.002-4.395 0.235-6.583 1.227-0.102 2.458-0.055 3.686-0.062 5.833-0.004 11.665 0.009 17.498-0.009 0.403 0.028 0.902-0.083 1.15 0.329 0.102 2.091-0.009 4.188 0.051 6.283 1.022 0.051 2.048-0.036 3.068 0.062 0.553 0.081 0.986 0.582 0.926 1.148-0.004 2.537 0.011 5.073-0.017 7.61 0.602 0.141 1.22 0.147 1.835 0.164 0.7-0.030 1.195 0.542 1.73 0.902v13.973c-0.452 0.469-0.966 1.026-1.685 0.926-11.319 0-22.637-0.004-33.954 0.002-0.439-0.004-0.911-0.043-1.263-0.333-0.457-0.429-0.512-1.109-0.514-1.698 0.015-3.991 0-7.985 0.006-11.977-0.045-0.785 0.437-1.609 1.239-1.764 0.794-0.083 1.606 0.017 2.383-0.213-0.036-2.598-0.017-5.197-0.019-7.795-0.053-0.482 0.41-0.868 0.841-0.956 0.932-0.083 1.871-0.019 2.805-0.009zM9.532 2.039c-0.021 4.233 0.002 8.463-0.011 12.693-0.019 0.395 0.1 0.774 0.194 1.152 6.251-0.021 12.499 0.017 18.748-0.019 0.026-4.61 0.019-9.22 0.004-13.83-6.313-0.026-12.623-0.038-18.935 0.004zM5.873 8.843c-0.073 2.103-0.009 4.207-0.036 6.31 0.023 0.26-0.085 0.8 0.354 0.727 0.518-0.064 1.244 0.243 1.562-0.301 0.049-1.564-0.002-3.132 0.019-4.698-0.011-0.689 0.085-1.404-0.188-2.057-0.57 0.019-1.139 0.021-1.711 0.017zM30.389 8.853c-0.070 2.289 0.013 4.578-0.047 6.865 0.642 0.254 1.376 0.241 2.007-0.043-0.058-2.178 0.006-4.361-0.030-6.539-0.442-0.582-1.303-0.175-1.931-0.284zM3.373 18.726c-0.053 3.373-0.043 6.75-0.006 10.123 1.457 0.017 2.916 0.013 4.373 0.002 0.077-1.143-0.028-2.293 0.060-3.435 0.151-0.205 0.311-0.401 0.48-0.589 7.055 0.043 14.11 0 21.165 0.021 0.337-0.058 0.751 0.158 0.74 0.535 0.066 1.15-0.023 2.306 0.049 3.458 1.527 0.023 3.057 0.028 4.585-0.002 0.032-3.369 0.045-6.739-0.006-10.106-10.479-0.032-20.96-0.015-31.439-0.009zM9.679 28.713c6.266-0.013 12.531 0.023 18.797-0.019 0.002-0.636 0.002-1.269 0.006-1.905-0.454-0.105-0.911-0.222-1.38-0.203-5.687 0.021-11.377-0.017-17.062 0.019-0.864 0.307-0.484 1.436-0.361 2.108z"></path>
</symbol>
<symbol id="icon-outside" viewBox="0 0 30 32">
<path fill="#629fd1" style="fill: var(--color2, #629fd1)" d="M14.072 0.796c0.213-0.593 1.134-0.628 1.395-0.043 0.435 0.964 0.486 2.052 0.915 3.018 0.822 0.318 1.722 0.213 2.584 0.225 3.099 0 6.2-0.008 9.3 0 0.541-0.039 0.942 0.361 1.365 0.632v17.902c-0.419 0.462-0.873 1.053-1.566 1.033-2.104 0.028-4.211-0.034-6.317 0.028 0.482 2.449 1.335 4.812 1.863 7.249 0.217 0.759-0.871 1.165-1.369 0.68-0.201-0.356-0.308-0.753-0.423-1.142-0.597-2.311-1.209-4.62-1.853-6.919-1.472-0.038-2.943-0.030-4.417-0.006-0.041 1.612 0.004 3.224-0.028 4.834-0.454 0.34-1.229 0.421-1.466-0.217-0.36-1.509 0.158-3.085-0.095-4.612-1.438-0.034-2.876-0.032-4.312 0-0.849 2.582-1.341 5.274-2.216 7.846-0.255 0.642-0.996 0.367-1.468 0.18-0.041-1.169 0.452-2.246 0.717-3.362 0.375-1.513 0.859-2.999 1.183-4.523-2.244-0.365-4.535-0.032-6.795-0.186-0.427-0.091-0.739-0.442-1.069-0.707v-18.155c0.484-0.3 0.946-0.768 1.564-0.697 3.848 0.012 7.696 0.002 11.544 0.008 0.45-0.98 0.559-2.070 0.964-3.064zM2.675 6.428c-0.053 4.719-0.016 9.438-0.018 14.155 0.071 0.063 0.213 0.188 0.284 0.251 7.939 0.012 15.88 0.020 23.82-0.004 0.069-4.802 0.038-9.61 0.016-14.412-8.034-0.004-16.069-0.028-24.103 0.010z"></path>
<path fill="#629fd1" style="fill: var(--color2, #629fd1)" d="M6.795 19.583c-0.055-0.49 0.061-1.183 0.707-1.118 4.879-0.008 9.758-0.010 14.635 0.002 0.395-0.026 0.541 0.446 0.749 0.697-0.221 0.45-0.589 0.903-1.144 0.865-4.551 0.006-9.104-0.004-13.655 0.004-0.486 0.061-0.881-0.251-1.292-0.45z"></path>
</symbol>
<symbol id="icon-seo" viewBox="0 0 32 32">
<path fill="#629fd1" style="fill: var(--color2, #629fd1)" d="M12.649 4.147c3.364-2.432 7.482-4.013 11.671-3.857 1.611 0.009 3.247-0.073 4.823 0.324 0.695 0.169 1.606 0.299 1.833 1.111 1.818 6.539 0.090 13.973-4.533 18.965-0.29 0.388-0.789 0.73-0.774 1.261 0.023 1.222 0.203 2.475-0.141 3.674-0.681 3.017-3.29 5.495-6.342 6.001-1.722 0.171-3.575 0.154-5.124-0.717-0.55-0.303-0.896-1.082-0.529-1.647 0.375-0.646 0.855-1.231 1.199-1.897-1.216-0.006-2.428 0.083-3.644 0.066-0.646 0.019-1.122-0.493-1.568-0.892-1.314-1.321-2.618-2.65-3.951-3.949-0.375-0.384-0.785-0.757-1.035-1.237-0.518-1.395 0.361-2.903-0.128-4.29-0.676 0.416-1.271 0.956-1.965 1.346-0.454 0.149-0.994 0.053-1.28-0.354-0.642-0.83-0.802-1.907-1.161-2.869v-1.803c0.247-1.009 0.51-2.025 0.981-2.955 1.020-2.059 3.006-3.597 5.237-4.117 1.293-0.213 2.607 0.002 3.904-0.079 0.917-0.599 1.63-1.457 2.526-2.086zM21.446 2.991c-3.729 0.747-7.194 2.677-9.775 5.474-0.427 0.567-1.126 0.751-1.777 0.459-1.931-0.727-4.201-0.145-5.632 1.312-1.259 1.184-1.833 2.974-1.609 4.676 1.31-0.16 2.519-0.836 3.857-0.847 0.563 0.173 1.193 0.629 1.075 1.295-0.111 1.632-0.875 3.221-0.58 4.875 1.525 1.589 3.091 3.149 4.683 4.676 1.54-0.002 3.053-0.318 4.54-0.689 0.919-0.26 1.751 0.819 1.487 1.675-0.092 1.129-0.578 2.159-0.879 3.238 0.772 0.015 1.555 0.077 2.319-0.064 1.466-0.471 2.756-1.523 3.458-2.897 0.727-1.325 0.713-2.959 0.252-4.369-0.049-0.252-0.228-0.531-0.094-0.785 0.388-0.828 1.167-1.365 1.764-2.031 2.622-2.852 4.209-6.598 4.58-10.441-0.038-1.796 0.247-3.695-0.501-5.387-0.546-0.486-1.385-0.171-2.050-0.335-1.698-0.375-3.426-0.043-5.118 0.164z"></path>
<path fill="#629fd1" style="fill: var(--color2, #629fd1)" d="M20.542 6.165c0.971-0.186 1.956 0.149 2.812 0.587 1.557 0.8 2.447 2.609 2.34 4.326-0.139 2.010-1.724 3.817-3.721 4.151-0.905 0.045-1.873 0.132-2.703-0.309-1.626-0.74-2.784-2.447-2.756-4.25 0.049-2.214 1.807-4.243 4.028-4.506zM20.162 7.861c-1.205 0.482-2.127 1.696-2.106 3.012 0.162 1.574 1.626 2.995 3.251 2.886 1.562-0.128 2.799-1.564 2.882-3.093-0.124-0.962-0.631-1.892-1.446-2.441-0.715-0.595-1.728-0.527-2.581-0.365z"></path>
<path fill="#629fd1" style="fill: var(--color2, #629fd1)" d="M0.958 25.399c0.627-0.858 1.408-1.617 2.236-2.278 0.634-0.211 1.058 0.224 1.244 0.783-0.678 0.804-1.404 1.574-2.193 2.268-0.497 0.542-1.564-0.043-1.286-0.772z"></path>
<path fill="#629fd1" style="fill: var(--color2, #629fd1)" d="M4.907 25.798c0.373-0.544 1.071-0.326 1.619-0.297 0.009 0.42 0.090 0.911-0.286 1.212-1.265 1.299-2.556 2.577-3.844 3.855-0.538 0.651-1.835 0.224-1.449-0.71 1.225-1.438 2.66-2.688 3.959-4.060z"></path>
<path fill="#629fd1" style="fill: var(--color2, #629fd1)" d="M5.423 29.862c0.678-0.945 1.562-1.732 2.462-2.464 0.247 0.107 0.495 0.213 0.747 0.316 0.026 0.457 0.186 1.026-0.213 1.374-0.58 0.599-1.135 1.239-1.815 1.726-0.642 0.215-1.363-0.222-1.18-0.951z"></path>
</symbol>
<symbol id="icon-solutions" viewBox="0 0 49 32">
<path fill="#355671" style="fill: var(--color3, #355671)" opacity="0.55" d="M5.062 0h38.49c0.495 0.602 0.937 1.31 0.9 2.123-0.009 7.753-0.004 15.507 0 23.26 0.058 1.122-0.851 2.219-2.010 2.195-11.516 0.017-23.031-0.011-34.547 0.013-0.911-0.032-1.916 0.158-2.737-0.333-0.572-0.335-0.823-1.005-0.798-1.643 0.013-7.904 0.013-15.81 0-23.714-0.047-0.71 0.363-1.314 0.702-1.901zM5.47 0.612c-0.574 0.137-0.704 0.789-0.693 1.295 0.011 7.541 0.019 15.083-0.002 22.624 0.034 0.721-0.147 1.549 0.314 2.17 0.693 0.471 1.594 0.254 2.381 0.299 11.738-0.015 23.475-0.009 35.213-0.002 0.757 0.060 1.427-0.631 1.348-1.387-0.013-7.539-0.017-15.081 0.002-22.622-0.038-0.663 0.143-1.406-0.213-2.010-0.625-0.646-1.623-0.435-2.432-0.471-11.093 0.023-22.187 0.006-33.28 0.009-0.877 0.023-1.775-0.105-2.637 0.096z"></path>
<path fill="#355671" style="fill: var(--color3, #355671)" opacity="0.55" d="M7.61 3.345c0.19-0.324 0.599-0.252 0.915-0.286 9.888 0.013 19.774 0.002 29.662 0.004 1.028 0.026 2.086-0.132 3.087 0.179-0.036 7.046 0.051 14.095-0.043 21.139-0.371 0.028-0.74 0.053-1.111 0.064-9.818-0.009-19.635-0.002-29.453-0.004-0.894-0.015-1.792 0.073-2.682-0.043-0.273-0.017-0.429-0.297-0.459-0.542-0.215-0.973 0.019-1.967-0.006-2.95-0.006-4.836 0-9.67-0.004-14.507 0.017-1.015-0.273-2.074 0.094-3.055zM7.957 3.505c-0.228 0.958 0.017 1.929 0.006 2.895-0.006 4.907-0.006 9.813-0.002 14.72 0.006 0.962-0.181 1.926-0.002 2.884 10.929 0.015 21.86-0.017 32.791 0.015 0.166-1.101 0.087-2.217 0.096-3.326 0.006-5.263-0.011-10.526 0.009-15.789 0-0.476-0.034-0.951-0.083-1.425-10.938 0.036-21.877-0.015-32.815 0.026z"></path>
<path fill="#355671" style="fill: var(--color3, #355671)" opacity="0.55" d="M25.084 8.034c-0.169-0.981 1.007-1.645 1.826-1.199 0.892 0.565 1.517 1.446 2.3 2.142 0.506 0.546 1.271 1.069 1.218 1.903 0.032 0.606-0.523 0.979-0.885 1.38-0.777 0.715-1.472 1.513-2.255 2.221-0.555 0.538-1.694 0.544-2.046-0.233-0.565-0.879 0.619-1.504 0.986-2.18-1.314-0.096-2.637 0.051-3.949-0.090-0.574-0.073-1.312-0.422-1.28-1.101-0.079-0.695 0.593-1.263 1.239-1.329 1.318-0.096 2.639 0.041 3.953 0.119-0.211-0.646-0.791-1.054-1.107-1.634zM25.664 7.334c-0.124 0.693 0.247 1.242 0.757 1.664 0.439 0.311 0.369 0.86 0.352 1.329-1.805 0.128-3.802-0.719-5.451 0.307 0.183 0.269 0.273 0.702 0.666 0.736 1.589 0.169 3.196-0.019 4.791 0.075-0.043 0.401 0.145 0.937-0.241 1.216-0.29 0.282-0.625 0.523-0.877 0.843-0.036 0.454 0.209 1.052 0.757 0.947 0.919-0.439 1.51-1.325 2.257-1.99 0.461-0.506 1.111-0.922 1.34-1.587-0.115-0.659-0.73-1.079-1.15-1.553-0.804-0.717-1.444-1.651-2.415-2.157-0.267 0.043-0.527 0.098-0.787 0.171z"></path>
<path fill="#355671" style="fill: var(--color3, #355671)" opacity="0.55" d="M20.614 13.788c0.542-0.525 1.131-1.237 1.975-1.109 0.591-0.017 1.205 0.525 1.156 1.129-0.252 0.531-0.612 1.001-0.892 1.517 1.402-0.034 2.837-0.077 4.194 0.324 0.745 0.209 0.74 1.133 0.544 1.732-0.294 0.437-0.834 0.642-1.348 0.625-1.173 0.017-2.349-0.045-3.52 0.023 0.363 0.538 0.753 1.056 1.105 1.604-0.314 0.457-0.582 1.163-1.237 1.158-0.772 0.094-1.289-0.589-1.788-1.060-0.747-0.813-1.611-1.515-2.3-2.379-0.35-0.403-0.294-1.011 0.036-1.406 0.606-0.796 1.397-1.425 2.074-2.159zM21.169 13.914c-0.879 0.887-1.833 1.709-2.56 2.731 0.608 0.986 1.521 1.713 2.308 2.545 0.448 0.435 0.881 0.941 1.481 1.167 0.42 0.034 0.668-0.384 0.747-0.74-0.166-0.565-0.745-0.868-1.043-1.357-0.049-0.29-0.051-0.582-0.068-0.875 1.406-0.032 2.814 0.051 4.218 0.004 0.429-0.036 1.084-0.068 1.163-0.606 0.075-0.523-0.506-0.868-0.969-0.858-1.402-0.073-2.807 0.051-4.209-0.028-0.132-0.845 0.512-1.442 0.969-2.057-0.196-0.269-0.294-0.674-0.649-0.779-0.578 0.011-0.979 0.506-1.387 0.851z"></path>
<path fill="#355671" style="fill: var(--color3, #355671)" opacity="0.55" d="M0 28.943c0.604-0.299 1.214-0.663 1.909-0.666 14.94 0.023 29.879 0.028 44.817-0.002 0.695-0.006 1.325 0.316 1.914 0.649v0.57c-0.608-0.273-1.222-0.61-1.909-0.606-14.295-0.002-28.593 0.009-42.891-0.004-0.966 0.034-1.978-0.139-2.912 0.162-0.887 0.629-0.463 2.389 0.764 2.219 14.94 0.051 29.884-0.006 44.826 0.028 0.813 0.066 1.553-0.316 2.123-0.87v0.689c-0.301 0.305-0.612 0.602-0.93 0.89h-46.421c-0.446-0.322-0.877-0.663-1.289-1.028v-2.029z"></path>
<path fill="#629fd1" style="fill: var(--color2, #629fd1)" d="M5.47 0.612c0.862-0.201 1.76-0.073 2.637-0.096 11.093-0.002 22.187 0.015 33.28-0.009 0.809 0.036 1.807-0.175 2.432 0.471 0.356 0.604 0.175 1.346 0.213 2.010-0.019 7.541-0.015 15.083-0.002 22.622 0.079 0.755-0.591 1.446-1.348 1.387-11.738-0.006-23.475-0.013-35.213 0.002-0.787-0.045-1.687 0.173-2.381-0.299-0.461-0.621-0.279-1.449-0.314-2.17 0.021-7.541 0.013-15.083 0.002-22.624-0.011-0.506 0.119-1.158 0.693-1.295zM7.61 3.345c-0.367 0.981-0.077 2.039-0.094 3.055 0.004 4.836-0.002 9.67 0.004 14.507 0.026 0.983-0.209 1.978 0.006 2.95 0.030 0.245 0.186 0.525 0.459 0.542 0.89 0.115 1.788 0.028 2.682 0.043 9.818 0.002 19.635-0.004 29.453 0.004 0.371-0.011 0.74-0.036 1.111-0.064 0.094-7.044 0.006-14.093 0.043-21.139-1.001-0.311-2.059-0.154-3.087-0.179-9.888-0.002-19.774 0.009-29.662-0.004-0.316 0.034-0.725-0.038-0.915 0.286z"></path>
<path fill="#629fd1" style="fill: var(--color2, #629fd1)" d="M25.664 7.334c0.26-0.073 0.521-0.128 0.787-0.171 0.971 0.506 1.611 1.44 2.415 2.157 0.42 0.474 1.035 0.894 1.15 1.553-0.228 0.666-0.879 1.082-1.34 1.587-0.747 0.666-1.338 1.551-2.257 1.99-0.548 0.105-0.794-0.493-0.757-0.947 0.252-0.32 0.587-0.561 0.877-0.843 0.386-0.279 0.198-0.815 0.241-1.216-1.596-0.094-3.202 0.094-4.791-0.075-0.393-0.034-0.482-0.467-0.666-0.736 1.649-1.026 3.646-0.179 5.451-0.307 0.017-0.469 0.087-1.018-0.352-1.329-0.51-0.422-0.881-0.971-0.757-1.664z"></path>
<path fill="#629fd1" style="fill: var(--color2, #629fd1)" d="M21.169 13.914c0.407-0.346 0.809-0.841 1.387-0.851 0.354 0.105 0.452 0.51 0.649 0.779-0.457 0.614-1.101 1.212-0.969 2.057 1.402 0.079 2.807-0.045 4.209 0.028 0.463-0.011 1.043 0.335 0.969 0.858-0.079 0.538-0.734 0.57-1.163 0.606-1.404 0.047-2.812-0.036-4.218-0.004 0.017 0.292 0.019 0.585 0.068 0.875 0.299 0.489 0.877 0.791 1.043 1.357-0.079 0.356-0.326 0.774-0.747 0.74-0.599-0.226-1.033-0.732-1.481-1.167-0.787-0.832-1.7-1.559-2.308-2.545 0.727-1.022 1.681-1.843 2.56-2.731z"></path>
<path fill="#629fd1" style="fill: var(--color2, #629fd1)" d="M0.928 29.045c0.934-0.301 1.946-0.128 2.912-0.162 14.298 0.013 28.595 0.002 42.891 0.004 0.687-0.004 1.301 0.333 1.909 0.606v0.928c-0.57 0.555-1.31 0.937-2.123 0.87-14.942-0.034-29.886 0.023-44.826-0.028-1.227 0.171-1.651-1.589-0.764-2.219z"></path>
</symbol>
<symbol id="icon-visit" viewBox="0 0 32 32">
<path fill="#fff" style="fill: var(--color1, #fff)" d="M16 0c0.977 0 1.769 0.792 1.769 1.769v28.462c0 0.977-0.792 1.769-1.769 1.769s-1.769-0.792-1.769-1.769v-28.462c0-0.977 0.792-1.769 1.769-1.769z"></path>
<path fill="#fff" style="fill: var(--color1, #fff)" d="M32 16c0 0.977-0.792 1.769-1.769 1.769h-28.462c-0.977 0-1.769-0.792-1.769-1.769s0.792-1.769 1.769-1.769h28.462c0.977 0 1.769 0.792 1.769 1.769z"></path>
</symbol>
<symbol id="icon-experiance" viewBox="0 0 34 32">
<path fill="#fff" style="fill: var(--color1, #fff)" d="M29.867 32h-25.6c-2.356 0-4.267-1.91-4.267-4.267v0-19.2c0-2.356 1.91-4.267 4.267-4.267v0h6.4v-2.133c0-1.178 0.955-2.133 2.133-2.133v0h8.533c1.178 0 2.133 0.955 2.133 2.133v0 2.133h6.4c2.356 0 4.267 1.91 4.267 4.267v0 19.2c0 2.356-1.91 4.267-4.267 4.267v0zM21.333 4.267v-1.067c0-0.589-0.478-1.067-1.067-1.067v0h-6.4c-0.589 0-1.067 0.478-1.067 1.067v0 1.067h8.533zM32 8.533c0-1.178-0.955-2.133-2.133-2.133v0h-25.6c-1.178 0-2.133 0.955-2.133 2.133v0 5.333h29.867v-5.333zM14.933 17.067c0 1.178 0.955 2.133 2.133 2.133s2.133-0.955 2.133-2.133v0c-0.003-0.394-0.113-0.762-0.304-1.076l0.005 0.009h-3.669c-0.185 0.305-0.296 0.672-0.299 1.066v0.001zM32 16h-10.816c0.089 0.318 0.143 0.685 0.149 1.063l0 0.004c0 2.356-1.91 4.267-4.267 4.267s-4.267-1.91-4.267-4.267v0c0.006-0.382 0.060-0.748 0.157-1.097l-0.007 0.031h-10.816v11.733c0.004 1.177 0.957 2.13 2.133 2.133h25.6c1.177-0.004 2.13-0.957 2.133-2.133v-11.734z"></path>
</symbol>
<symbol id="icon-lower-cost" viewBox="0 0 32 32">
<path fill="#fff" style="fill: var(--color1, #fff)" d="M30.589 17.616l-13.212 13.182c-0.754 0.747-1.792 1.209-2.938 1.209s-2.184-0.462-2.938-1.209l0 0-10.28-10.25c-0.751-0.75-1.216-1.787-1.216-2.933s0.465-2.183 1.216-2.933l0-0 13.212-13.172c1.011-1.061 1.201-1.521 2.262-1.521h13.433c1.056 0 1.912 0.856 1.912 1.912v0 13.393c0 1.051-0.601 1.471-1.451 2.322zM2.683 19.078l10.28 10.25c0.377 0.376 0.897 0.608 1.471 0.608s1.094-0.232 1.471-0.608l-0 0 1.451-1.441-13.182-13.212-1.491 1.481c-0.376 0.373-0.608 0.89-0.608 1.461s0.232 1.088 0.608 1.461l0 0zM30.128 2.863c0-0.531-0.43-0.961-0.961-0.961v0h-11.511c-0.705 0.172-1.305 0.55-1.748 1.067l-0.004 0.004-10.27 10.24 13.202 13.192 10.28-10.25c0.516-0.466 0.878-1.094 1.008-1.802l0.003-0.020v-11.471zM19.578 12.492c-0.748-0.75-1.21-1.785-1.21-2.928 0-2.291 1.857-4.148 4.148-4.148s4.148 1.857 4.148 4.148c0 1.143-0.462 2.178-1.21 2.928l0-0c-0.749 0.757-1.789 1.226-2.938 1.226s-2.188-0.469-2.937-1.226l-0-0zM23.982 8.098c-0.376-0.377-0.896-0.611-1.471-0.611-1.147 0-2.077 0.93-2.077 2.077s0.93 2.077 2.077 2.077c0.575 0 1.095-0.233 1.471-0.611l0-0c0.373-0.376 0.603-0.894 0.603-1.466s-0.23-1.090-0.603-1.467l0 0z"></path>
</symbol>
<symbol id="icon-professional" viewBox="0 0 32 32">
<path fill="#fff" style="fill: var(--color1, #fff)" d="M30 2v19l-0-0.009c0.003 0.066 0.005 0.131 0.005 0.198 0 2.108-1.708 3.816-3.816 3.816-0.066 0-0.132-0.002-0.189-0.005h-6l4 7-3.010-0.010-3.99-6.99h-2l-3.99 6.99-3.010 0.010 4-7-5.991-0c-0.066 0.003-0.131 0.005-0.198 0.005-2.108 0-3.816-1.708-3.816-3.816 0-0.066 0.002-0.132 0.005-0.189v-19h-2v-2h32v2h-2zM28.010 1.99h-24.030c0 1.27 0.020 19.010 0.020 19.010-0.003 0.041-0.005 0.088-0.005 0.136 0 1.032 0.837 1.869 1.869 1.869 0.048 0 0.095-0.002 0.142-0.005l-0.006 0h20c0.041 0.003 0.088 0.005 0.136 0.005 1.032 0 1.869-0.837 1.869-1.869 0-0.048-0.002-0.095-0.005-0.142l0 0.006s0.010-16.99 0.010-19.010zM22 20v0c0.552 0 1-0.448 1-1v-9c0-0.552-0.448-1-1-1s-1 0.448-1 1v9c0 0.552 0.448 1 1 1zM16 20v0c0.552 0 1-0.448 1-1v-12c0-0.552-0.448-1-1-1s-1 0.448-1 1v12c0 0.552 0.448 1 1 1zM10 20v0c0.552 0 1-0.448 1-1v-4c0-0.552-0.448-1-1-1s-1 0.448-1 1v4c0 0.552 0.448 1 1 1z"></path>
</symbol>
<symbol id="icon-quality" viewBox="0 0 32 32">
<path fill="#fff" style="fill: var(--color1, #fff)" d="M32.010 25.95s-3.16 0.63-6.37 1.29c-2.14 2.38-4.27 4.76-4.27 4.76l-4.59-7.83c-0.26 0.020-0.52 0.040-0.78 0.040s-0.52-0.020-0.78-0.040l-4.59 7.83s-2.13-2.38-4.27-4.76c-3.21-0.66-6.37-1.29-6.37-1.29l4.99-8.52c-0.796-1.549-1.264-3.379-1.27-5.318v-0.002c0.088-6.72 5.557-12.134 12.29-12.134s12.202 5.414 12.29 12.126l0 0.008c-0.006 1.941-0.474 3.771-1.301 5.387l0.031-0.067zM21.6 28.37s1.54-1.46 2.98-2.86c2.050-0.58 4.12-1.18 4.12-1.18l-2.9-4.94c-1.685 2.179-4.046 3.763-6.765 4.442l-0.085 0.018zM3.3 24.33s2.070 0.6 4.12 1.18c1.44 1.4 2.97 2.86 2.97 2.86l2.66-4.52c-2.804-0.697-5.165-2.281-6.829-4.432l-0.021-0.028zM16 1.99c-0.006 0-0.013-0-0.020-0-5.528 0-10.010 4.482-10.010 10.010s4.482 10.010 10.010 10.010c5.528 0 10.010-4.482 10.010-10.010v0c0-0.003 0-0.007 0-0.010 0-5.519-4.471-9.994-9.989-10h-0.001zM16 19c-3.866 0-7-3.134-7-7s3.134-7 7-7c3.866 0 7 3.134 7 7v0c0 0.001 0 0.003 0 0.005 0 3.863-3.132 6.995-6.995 6.995-0.002 0-0.003 0-0.005 0h0zM16 7c-2.761 0-5 2.239-5 5s2.239 5 5 5c2.761 0 5-2.239 5-5v0c0-2.761-2.239-5-5-5v0z"></path>
</symbol>
<symbol id="icon-speed" viewBox="0 0 32 32">
<path fill="#fff" style="fill: var(--color1, #fff)" d="M29.867 18.133c0 0.004 0 0.008 0 0.013 0 7.658-6.208 13.867-13.867 13.867s-13.867-6.208-13.867-13.867c0-7.287 5.62-13.261 12.762-13.823l0.048-0.003c0-0.021-0.011-0.032-0.011-0.053v-2.133h-4.267c-0.589 0-1.067-0.478-1.067-1.067s0.478-1.067 1.067-1.067v0h10.667c0.589 0 1.067 0.478 1.067 1.067s-0.478 1.067-1.067 1.067v0h-4.267v2.133c0 0.021-0.011 0.032-0.011 0.053 7.189 0.559 12.811 6.53 12.811 13.813v0zM16 6.4c-6.48 0-11.733 5.253-11.733 11.733s5.253 11.733 11.733 11.733c6.48 0 11.733-5.253 11.733-11.733v0c0-0.002 0-0.004 0-0.006 0-6.477-5.25-11.727-11.727-11.727-0.002 0-0.005 0-0.007 0h0zM16 21.333c-1.757-0.014-3.175-1.441-3.175-3.2 0-1.376 0.868-2.549 2.086-3.001l0.022-0.007v-5.525c0-0.589 0.478-1.067 1.067-1.067s1.067 0.478 1.067 1.067v0 5.525c1.24 0.459 2.108 1.632 2.108 3.008 0 1.759-1.419 3.186-3.174 3.2h-0.001z"></path>
</symbol>
<symbol id="icon-clock" viewBox="0 0 32 32">
<path d="M18 14v-6h-4v10h8v-4zM16 0c-8.836 0-16 7.164-16 16s7.164 16 16 16 16-7.164 16-16-7.164-16-16-16zM16 28c-6.626 0-12-5.374-12-12s5.374-12 12-12 12 5.374 12 12-5.374 12-12 12z"></path>
</symbol>
<symbol id="icon-ic-email-24px" viewBox="0 0 32 32">
<path d="M26.667 5.333h-21.333c-1.467 0-2.653 1.2-2.653 2.667l-0.013 16c0 1.467 1.2 2.667 2.667 2.667h21.333c1.467 0 2.667-1.2 2.667-2.667v-16c0-1.467-1.2-2.667-2.667-2.667zM26.667 10.667l-10.667 6.667-10.667-6.667v-2.667l10.667 6.667 10.667-6.667v2.667z"></path>
</symbol>
<symbol id="icon-ic-phone-24px" viewBox="0 0 32 32">
<path d="M8.827 14.387c1.92 3.773 5.013 6.853 8.787 8.787l2.933-2.933c0.36-0.36 0.893-0.48 1.36-0.32 1.493 0.493 3.107 0.76 4.76 0.76 0.733 0 1.333 0.6 1.333 1.333v4.653c0 0.733-0.6 1.333-1.333 1.333-12.52 0-22.667-10.147-22.667-22.667 0-0.733 0.6-1.333 1.333-1.333h4.667c0.733 0 1.333 0.6 1.333 1.333 0 1.667 0.267 3.267 0.76 4.76 0.147 0.467 0.040 0.987-0.333 1.36l-2.933 2.933z"></path>
</symbol>
<symbol id="icon-map-marker" viewBox="0 0 18 32">
<path d="M13.714 11.429c0-2.518-2.054-4.571-4.571-4.571s-4.571 2.054-4.571 4.571 2.054 4.571 4.571 4.571 4.571-2.054 4.571-4.571zM18.286 11.429c0 1.089-0.125 2.214-0.59 3.197l-6.501 13.822c-0.375 0.786-1.197 1.267-2.054 1.267s-1.679-0.482-2.035-1.267l-6.518-13.822c-0.464-0.982-0.59-2.107-0.59-3.197 0-5.054 4.089-9.143 9.143-9.143s9.143 4.089 9.143 9.143z"></path>
</symbol>
<symbol id="icon-Angle-Left" viewBox="0 0 13 32">
<path d="M11.189 9.714c0 0.143-0.080 0.304-0.183 0.41l-7.029 7.018 7.018 7.017c0.103 0.103 0.171 0.263 0.171 0.4 0 0.143-0.080 0.297-0.183 0.4l-0.903 0.891c-0.114 0.103-0.274 0.171-0.41 0.171-0.143 0-0.304-0.080-0.41-0.183l-8.323-8.331c-0.114-0.114-0.183-0.274-0.183-0.41 0-0.143 0.069-0.304 0.171-0.41l8.32-8.331c0.103-0.114 0.263-0.183 0.41-0.183 0.143 0 0.304 0.069 0.41 0.171l0.891 0.891c0.103 0.103 0.171 0.24 0.171 0.41z"></path>
</symbol>
<symbol id="icon-Angle-Right" viewBox="0 0 10 32">
<path d="M10.617 17.143c0 0.143-0.080 0.304-0.183 0.41l-8.331 8.32c-0.114 0.103-0.274 0.171-0.41 0.171-0.143 0-0.304-0.080-0.41-0.183l-0.903-0.903c-0.114-0.114-0.183-0.251-0.183-0.411 0-0.143 0.072-0.309 0.171-0.411l7.018-7.018-7.021-7.018c-0.114-0.114-0.183-0.274-0.183-0.41 0-0.143 0.072-0.304 0.171-0.41l0.891-0.903c0.103-0.114 0.263-0.183 0.41-0.183 0.143 0 0.304 0.069 0.41 0.171l8.322 8.321c0.103 0.103 0.171 0.263 0.171 0.41z"></path>
</symbol>
</defs>
</svg>
